<mxfile host="app.diagrams.net" modified="2023-11-02T13:52:47.122Z" agent="Mozilla/5.0 (Windows NT 10.0; Win64; x64) AppleWebKit/537.36 (KHTML, like Gecko) Chrome/118.0.0.0 Safari/537.36 Edg/118.0.2088.76" etag="aA9ESPyVAZpOM41pf5_O" version="21.6.9" type="device">
  <diagram id="uMTkEnyGo4iRGfqzwR6V" name="Página-1">
    <mxGraphModel dx="949" dy="581" grid="1" gridSize="10" guides="1" tooltips="1" connect="1" arrows="1" fold="1" page="1" pageScale="1" pageWidth="1169" pageHeight="827" math="0" shadow="0">
      <root>
        <mxCell id="0" />
        <mxCell id="1" parent="0" />
        <mxCell id="bhSp_nqPL6aL0_6EBMFD-37" value="lo que se haga,&lt;br&gt;ha de quedar&lt;br&gt;&#39;totalmente acabado&#39; (*)&lt;br&gt;&lt;br&gt;no acumular &lt;br&gt;&quot;deuda técnica&quot;" style="shape=hexagon;perimeter=hexagonPerimeter2;whiteSpace=wrap;html=1;fixedSize=1;fontColor=#FF9933;strokeColor=#FFD966;" parent="1" vertex="1">
          <mxGeometry x="1578.75" y="244" width="146.25" height="100" as="geometry" />
        </mxCell>
        <mxCell id="bhSp_nqPL6aL0_6EBMFD-4" value="visión general&lt;br&gt;del proyecto&lt;br&gt;(rumbo a seguir)" style="shape=note;whiteSpace=wrap;html=1;backgroundOutline=1;darkOpacity=0.05;align=center;" parent="1" vertex="1">
          <mxGeometry x="60" y="40" width="150" height="80" as="geometry" />
        </mxCell>
        <mxCell id="bhSp_nqPL6aL0_6EBMFD-5" value="lista de&amp;nbsp;&lt;br&gt;COSAS A HACER&lt;br&gt;&lt;br&gt;(más o menos&lt;br&gt;priorizada)" style="shape=note;whiteSpace=wrap;html=1;backgroundOutline=1;darkOpacity=0.05;" parent="1" vertex="1">
          <mxGeometry x="240" y="90" width="210" height="670" as="geometry" />
        </mxCell>
        <mxCell id="bhSp_nqPL6aL0_6EBMFD-6" value="ITERACIÓN" style="shape=umlFrame;whiteSpace=wrap;html=1;width=100;height=40;" parent="1" vertex="1">
          <mxGeometry x="950" y="120" width="440" height="240" as="geometry" />
        </mxCell>
        <mxCell id="bhSp_nqPL6aL0_6EBMFD-7" value="lista de&lt;br&gt;cosas a hacer&lt;br&gt;EN ESTA ITERACIÓN" style="shape=note;whiteSpace=wrap;html=1;backgroundOutline=1;darkOpacity=0.05;" parent="1" vertex="1">
          <mxGeometry x="860" y="200" width="130" height="100" as="geometry" />
        </mxCell>
        <mxCell id="bhSp_nqPL6aL0_6EBMFD-8" value="software UTILIZABLE&lt;br&gt;&lt;br&gt;(y otros elementos entregrables que se vayan construyendo)" style="shape=cube;whiteSpace=wrap;html=1;boundedLbl=1;backgroundOutline=1;darkOpacity=0.05;darkOpacity2=0.1;" parent="1" vertex="1">
          <mxGeometry x="1505" y="131" width="160" height="120" as="geometry" />
        </mxCell>
        <mxCell id="bhSp_nqPL6aL0_6EBMFD-11" value="" style="shape=umlActor;verticalLabelPosition=bottom;verticalAlign=top;html=1;" parent="1" vertex="1">
          <mxGeometry x="1035" y="284" width="30" height="60" as="geometry" />
        </mxCell>
        <mxCell id="bhSp_nqPL6aL0_6EBMFD-12" value="" style="shape=umlActor;verticalLabelPosition=bottom;verticalAlign=top;html=1;" parent="1" vertex="1">
          <mxGeometry x="1055" y="264" width="30" height="60" as="geometry" />
        </mxCell>
        <mxCell id="bhSp_nqPL6aL0_6EBMFD-13" value="" style="shape=umlActor;verticalLabelPosition=bottom;verticalAlign=top;html=1;" parent="1" vertex="1">
          <mxGeometry x="1075" y="294" width="30" height="60" as="geometry" />
        </mxCell>
        <mxCell id="bhSp_nqPL6aL0_6EBMFD-14" value="" style="shape=umlActor;verticalLabelPosition=bottom;verticalAlign=top;html=1;" parent="1" vertex="1">
          <mxGeometry x="1005" y="294" width="30" height="60" as="geometry" />
        </mxCell>
        <mxCell id="bhSp_nqPL6aL0_6EBMFD-16" value="" style="shape=umlActor;verticalLabelPosition=bottom;verticalAlign=top;html=1;" parent="1" vertex="1">
          <mxGeometry x="1580" y="494" width="30" height="60" as="geometry" />
        </mxCell>
        <mxCell id="bhSp_nqPL6aL0_6EBMFD-17" value="" style="shape=umlActor;verticalLabelPosition=bottom;verticalAlign=top;html=1;" parent="1" vertex="1">
          <mxGeometry x="1600" y="504" width="30" height="60" as="geometry" />
        </mxCell>
        <mxCell id="bhSp_nqPL6aL0_6EBMFD-18" value="" style="shape=umlActor;verticalLabelPosition=bottom;verticalAlign=top;html=1;" parent="1" vertex="1">
          <mxGeometry x="1590" y="534" width="30" height="60" as="geometry" />
        </mxCell>
        <mxCell id="bhSp_nqPL6aL0_6EBMFD-19" value="" style="shape=umlActor;verticalLabelPosition=bottom;verticalAlign=top;html=1;" parent="1" vertex="1">
          <mxGeometry x="1630" y="534" width="25" height="60" as="geometry" />
        </mxCell>
        <mxCell id="bhSp_nqPL6aL0_6EBMFD-20" value="" style="shape=umlActor;verticalLabelPosition=bottom;verticalAlign=top;html=1;" parent="1" vertex="1">
          <mxGeometry x="1620" y="484" width="30" height="60" as="geometry" />
        </mxCell>
        <mxCell id="bhSp_nqPL6aL0_6EBMFD-21" value="" style="shape=umlActor;verticalLabelPosition=bottom;verticalAlign=top;html=1;" parent="1" vertex="1">
          <mxGeometry x="1640" y="524" width="30" height="60" as="geometry" />
        </mxCell>
        <mxCell id="bhSp_nqPL6aL0_6EBMFD-22" value="" style="shape=umlActor;verticalLabelPosition=bottom;verticalAlign=top;html=1;" parent="1" vertex="1">
          <mxGeometry x="1650" y="504" width="30" height="60" as="geometry" />
        </mxCell>
        <mxCell id="bhSp_nqPL6aL0_6EBMFD-23" value="" style="shape=umlActor;verticalLabelPosition=bottom;verticalAlign=top;html=1;" parent="1" vertex="1">
          <mxGeometry x="1670" y="474" width="30" height="60" as="geometry" />
        </mxCell>
        <mxCell id="bhSp_nqPL6aL0_6EBMFD-24" value="" style="shape=umlActor;verticalLabelPosition=bottom;verticalAlign=top;html=1;" parent="1" vertex="1">
          <mxGeometry x="1540" y="564" width="30" height="60" as="geometry" />
        </mxCell>
        <mxCell id="bhSp_nqPL6aL0_6EBMFD-25" value="" style="shape=umlActor;verticalLabelPosition=bottom;verticalAlign=top;html=1;" parent="1" vertex="1">
          <mxGeometry x="1550" y="544" width="30" height="60" as="geometry" />
        </mxCell>
        <mxCell id="bhSp_nqPL6aL0_6EBMFD-26" value="" style="shape=umlActor;verticalLabelPosition=bottom;verticalAlign=top;html=1;" parent="1" vertex="1">
          <mxGeometry x="1570" y="514" width="30" height="80" as="geometry" />
        </mxCell>
        <mxCell id="bhSp_nqPL6aL0_6EBMFD-27" value="CLIENTE" style="shape=umlActor;verticalLabelPosition=bottom;verticalAlign=top;html=1;" parent="1" vertex="1">
          <mxGeometry x="915" y="319" width="30" height="60" as="geometry" />
        </mxCell>
        <mxCell id="bhSp_nqPL6aL0_6EBMFD-28" value="" style="html=1;shadow=0;dashed=0;align=center;verticalAlign=middle;shape=mxgraph.arrows2.bendArrow;dy=15;dx=38;notch=0;arrowHead=55;rounded=1;fillColor=#fff2cc;strokeColor=#d6b656;" parent="1" vertex="1">
          <mxGeometry x="470" y="105" width="410" height="155" as="geometry" />
        </mxCell>
        <mxCell id="bhSp_nqPL6aL0_6EBMFD-29" value="" style="html=1;shadow=0;dashed=0;align=center;verticalAlign=middle;shape=mxgraph.arrows2.bendArrow;dy=15;dx=38;notch=0;arrowHead=55;rounded=1;fillColor=#fff2cc;strokeColor=#d6b656;rotation=90;" parent="1" vertex="1">
          <mxGeometry x="1425" y="301.75" width="170" height="144.5" as="geometry" />
        </mxCell>
        <mxCell id="bhSp_nqPL6aL0_6EBMFD-31" value="integración contínua" style="ellipse;whiteSpace=wrap;html=1;" parent="1" vertex="1">
          <mxGeometry x="1320" y="220" width="140" height="40" as="geometry" />
        </mxCell>
        <mxCell id="bhSp_nqPL6aL0_6EBMFD-32" value="radiadores de información" style="ellipse;whiteSpace=wrap;html=1;" parent="1" vertex="1">
          <mxGeometry x="1225" y="344" width="200" height="60" as="geometry" />
        </mxCell>
        <mxCell id="bhSp_nqPL6aL0_6EBMFD-33" value="compartir información dentro del equipo" style="shape=hexagon;perimeter=hexagonPerimeter2;whiteSpace=wrap;html=1;fixedSize=1;fontColor=#FF9933;strokeColor=#FFD966;" parent="1" vertex="1">
          <mxGeometry x="1140" y="289" width="150" height="50" as="geometry" />
        </mxCell>
        <mxCell id="bhSp_nqPL6aL0_6EBMFD-35" value="compartir información&lt;br&gt;con toda aquella&lt;br&gt;persona interesada" style="shape=hexagon;perimeter=hexagonPerimeter2;whiteSpace=wrap;html=1;fixedSize=1;fontColor=#FF9933;strokeColor=#FFD966;" parent="1" vertex="1">
          <mxGeometry x="1275" y="414" width="165" height="66" as="geometry" />
        </mxCell>
        <mxCell id="bhSp_nqPL6aL0_6EBMFD-36" value="presentación pública&lt;br&gt;de lo realizado&lt;br&gt;en esta iteracción" style="ellipse;whiteSpace=wrap;html=1;" parent="1" vertex="1">
          <mxGeometry x="1355" y="504" width="150" height="80" as="geometry" />
        </mxCell>
        <mxCell id="bhSp_nqPL6aL0_6EBMFD-38" value="COLABORACIÓN estrecha&lt;br&gt;entre cliente y equipo de trabajo" style="shape=hexagon;perimeter=hexagonPerimeter2;whiteSpace=wrap;html=1;fixedSize=1;fontColor=#FF9933;strokeColor=#FFD966;" parent="1" vertex="1">
          <mxGeometry x="965" y="369" width="200" height="65" as="geometry" />
        </mxCell>
        <mxCell id="bhSp_nqPL6aL0_6EBMFD-39" value="Quien tenga algo que añadir&lt;br&gt;o modificar, que lo vaya apuntando&lt;br&gt;&amp;nbsp;en la lista.&lt;br&gt;&lt;br&gt;Si alguien considera que algo&lt;br&gt;en la lista es más importante&lt;br&gt;que otro algo en la lista,&lt;br&gt;que lo desplace hacia arriba&lt;br&gt;o hacia abajo en la lista.&lt;br&gt;(pero sin obsesionarse con tener siempre toda la lista priorizada;&amp;nbsp;la única priorización importante en cada momento, son &lt;br&gt;las primeras tareas de la lista)" style="shape=hexagon;perimeter=hexagonPerimeter2;whiteSpace=wrap;html=1;fixedSize=1;fontColor=#FF9933;strokeColor=#FFD966;align=center;size=30;" parent="1" vertex="1">
          <mxGeometry x="130" y="504" width="250" height="240" as="geometry" />
        </mxCell>
        <mxCell id="bhSp_nqPL6aL0_6EBMFD-41" value="" style="html=1;shadow=0;dashed=0;align=center;verticalAlign=middle;shape=mxgraph.arrows2.bendArrow;dy=15;dx=38;notch=0;arrowHead=55;rounded=1;fillColor=#fff2cc;strokeColor=#d6b656;rotation=-90;" parent="1" vertex="1">
          <mxGeometry x="875.7" y="104.2" width="172.87" height="896.75" as="geometry" />
        </mxCell>
        <mxCell id="bhSp_nqPL6aL0_6EBMFD-42" value="recoger la realimentación&lt;br&gt;de quienes hayan revisado&lt;br&gt;el software, o los entregables, o los radiadores, o la presentación, etc" style="shape=hexagon;perimeter=hexagonPerimeter2;whiteSpace=wrap;html=1;fixedSize=1;fontColor=#FF9933;strokeColor=#FFD966;" parent="1" vertex="1">
          <mxGeometry x="1031.5" y="534" width="230" height="90" as="geometry" />
        </mxCell>
        <mxCell id="bhSp_nqPL6aL0_6EBMFD-43" value="==&amp;gt; ANALISIS y ESTIMACIONES,&lt;br&gt;sobre las (primeras) tareas en la lista&lt;br&gt;de cosas a hacer.&amp;nbsp; Para ir valorando &lt;br&gt;lo que costará hacerlas&amp;nbsp;e ir ESCOGIENDO&lt;br&gt;LOS TRABAJOS QUE MÁS VALOR APORTEN&lt;br&gt;en cada momento.&lt;br&gt;&lt;br&gt;&lt;div style=&quot;text-align: right&quot;&gt;&lt;span&gt;==&amp;gt; PLANIFICACIÓN de la iteración,&lt;/span&gt;&lt;/div&gt;&lt;div style=&quot;text-align: right&quot;&gt;&lt;span&gt;escogiendo lo que se va ha hacer&lt;/span&gt;&lt;/div&gt;&lt;div style=&quot;text-align: right&quot;&gt;&lt;span&gt;EN ESTA ITERACIÓN.&lt;/span&gt;&lt;/div&gt;&lt;br&gt;&lt;br&gt;==&amp;gt; REVISIÓN del rumbo del proyecto,&lt;br&gt;¿es necesario ajustar algo?&lt;br&gt;&lt;br&gt;==&amp;gt; Revisión de los métodos de trabajo,&lt;br&gt;¿se puede mejorar algo?" style="html=1;dropTarget=0;fontColor=#000000;strokeColor=#000000;fillColor=#FFFFFF;align=left;" parent="1" vertex="1">
          <mxGeometry x="535" y="170" width="295" height="250" as="geometry" />
        </mxCell>
        <mxCell id="bhSp_nqPL6aL0_6EBMFD-44" value="" style="shape=module;jettyWidth=8;jettyHeight=4;fontColor=#FF9933;strokeColor=#D6B656;fillColor=#FFF2CC;" parent="bhSp_nqPL6aL0_6EBMFD-43" vertex="1">
          <mxGeometry x="1" width="20" height="20" relative="1" as="geometry">
            <mxPoint x="-27" y="7" as="offset" />
          </mxGeometry>
        </mxCell>
        <mxCell id="bhSp_nqPL6aL0_6EBMFD-45" value="(*) que un elemento &#39;quede totalmente acabado&#39; significa que: tal y como lo hemos dejado, sea utilizable.&lt;br&gt;&lt;br&gt;Obviamente, no es que se vaya a quedar así para siempre. El software es algo vivo &lt;br&gt;que va evolucionando. En cualquier momento se puede modificar algo ya hecho; &lt;br&gt;no hay más que anotar una nueva tarea en la lista de cosas a hacer &lt;br&gt;y esperar a que sea procesada en alguna iteración." style="text;html=1;resizable=0;autosize=1;align=left;verticalAlign=middle;points=[];fillColor=none;strokeColor=none;rounded=0;fontColor=#999999;" parent="1" vertex="1">
          <mxGeometry x="1100" y="715" width="570" height="90" as="geometry" />
        </mxCell>
        <mxCell id="bhSp_nqPL6aL0_6EBMFD-46" value="cada iteración tiene una duración fija (normalmente, unas dos semanas)&lt;br&gt;Durante la iteracción, no se puede modificar nada en la lista de cosas a hacer en esta iteración." style="shape=hexagon;perimeter=hexagonPerimeter2;whiteSpace=wrap;html=1;fixedSize=1;fontColor=#FF9933;strokeColor=#FFD966;" parent="1" vertex="1">
          <mxGeometry x="1075" y="90" width="275" height="60" as="geometry" />
        </mxCell>
        <mxCell id="bhSp_nqPL6aL0_6EBMFD-47" value="equipo autoorganizado" style="shape=hexagon;perimeter=hexagonPerimeter2;whiteSpace=wrap;html=1;fixedSize=1;fontColor=#FF9933;strokeColor=#FFD966;" parent="1" vertex="1">
          <mxGeometry x="1020" y="224" width="163.5" height="36" as="geometry" />
        </mxCell>
        <mxCell id="bhSp_nqPL6aL0_6EBMFD-48" value="nota: Quizá lo más chocante de las metodologias ágiles es que el proyecto se acaba&lt;br&gt;cuando se llega a la fecha de fin acordada, o cuando se agota el presupuesto acordado&lt;br&gt;o cuando se acaba la lista de cosas a hacer. Lo que antes suceda.&lt;br&gt;&lt;br&gt;nota: En cada iteración se va planificando y completando aquello que más valor aporta.&lt;br&gt;Es decir, en todo momento: se va viendo el progreso realizado, se puede ajustar &lt;br&gt;lo que se va a realizar y se tiene algo terminado/utilizable." style="text;html=1;resizable=0;autosize=1;align=left;verticalAlign=middle;points=[];fillColor=none;strokeColor=none;rounded=0;fontColor=#999999;" parent="1" vertex="1">
          <mxGeometry x="540" y="715" width="480" height="100" as="geometry" />
        </mxCell>
        <mxCell id="bhSp_nqPL6aL0_6EBMFD-51" value="" style="shape=image;imageAspect=0;aspect=fixed;verticalLabelPosition=bottom;verticalAlign=top;fontColor=#FF9933;strokeColor=#000000;fillColor=#FFFFFF;image=data:image/png,iVBORw0KGgoAAAANSUhEUgAAAN4AAABRCAYAAAC9gRi6AAAAAXNSR0IArs4c6QAAAARnQU1BAACxjwv8YQUAAAAJcEhZcwAADsMAAA7DAcdvqGQAAC85SURBVHhe7Z0JmB1F1fcrG1kmyWSSyTrZQ9gSEkggQCCsKiq+oijwIruAiIjKIyDIooIKGEAUEAVkc/kARQVRFGXfIXtCQiD7MskkmWSSTPaF9/xO97lT0+l7b/fsfM/9h6b7VledOvWvOlWnqqt7Wrm/v/+RK6CAApoUrcNzAQUU0IQoGF4BBTQDCoZXQAHNAJnjzSnM8QoooIlRGPEKKKAZUDC8AgpoBhQMr4ACmgGt3NOFOV4BBTQ1CiNeAQU0A5p8xGvdikyd2+XlWrpXG3dwcQd3aLcObkSX9m540V6uV/s2bkCHdhrfopJut/xYvGWHW7ltp1u0eYebtmGbm1y11U1ev9VV7dgVRBSQDhD/44A4fevDy6yN29y7wstU4WXN9o8nL+iKun5b6dK2tXIyVo79Ou/lhhW1c/2FD8Lhpm2roIC0hfU7d7vV23a5BcLHvE3blZN3qra4hfLbL38bSeLn0RRoMsODDjixAveURvX5Pl3c8aWd3AlylO7VVgmoCyCNBvdS5Wb3r1XVcmzKNDZtoHK/iXlNjCgvGNvJwsuneha5Y3p0rDcva7bvdG+t2+qeqah2/xBuVmzdqfdMZEvkJcpJ93Zt3Im9itxn5DiutMj1Fo7aWQ+SEtVijBjg82s2u6dXbhRD3BreaVoDbBLD8wt0UNcO7qJBxe7Ufl3V+HxYHCPerk1Bu8aQgIVHG+ZqMbq/rNjofr2oSkbEgFjqqaX18r5O8PL1wd3cKX27NBov63fsdk9VbHT3Ci9vrduiYS2NF7+tHCCj/MWDurnT+nVxfdq3DQJDEOcj+ddK/9XmBViRrNMlbhuJZPcB5X5TeHh02Xr36NL1bmtIRFNw0qiG55MwtFM7d/0+pe4rZV3dXmFvZeS1lphGnMEnzEeUaAPxd0tc7lqD2y7sPVa+wf1s3lr3nvRyoCU0NF+HfcVdumbvHu6MRuTFYhov5P2kdEw3z6tUVxQ0Ny9+/vuIS33F3t3duf2L83JC+fSsR00BAjY478kJ+eyWhG1Ftt2aU73d/Xz+WvfAkiqV0th8NJrh+Yp/e2iJu254qbpRYKcUOkogcSEu2ivlA7JIEdaPgsrACM3f3yjuxUQh9eYPK4O8Pd2aGpY35yuH9VCjK24XrHE1NC+AdD52Sbjxsk2E3yG8/ER42bRrd7Px4o9y3x3W3X1/eA91L0GUE4pFVAwnjbuJfNK0FkF+MuPXOHlj7RZ3zfur3SsybQGEhqo1KBrF8KwCmfj+6sA+Ol8BOySQXsYAib6BGGgES7bs1PnIZrleJRNkyGG+01Um0RjwYBlBmVD7iGu4OyVPqyDciktnVmgvbzo2JSzP/WWUu290X3dU944a3ti8WKP2slBerMfHHf/a9JW6GNPUvFh+LJTcO6qPO7ZHJw2nLv1Ogzi+gRhwn5nPr5A5/io5kEd5O7VpLe5pG9dLXNQS6dj47SPOoI1z7t0qXtL1YoBQ0RicNLjhmZInyCT4wYP6uIEd22nDgkTukRmF5GyuDyMSPczLcrA6OXvjdle5Y5emiwPkdBMy9+/cXlf8WKA5WirMGhzEIxpSOSPFenoq6jvvVbiHxadvDEKzwfJiDnefNLAeYiTWuNARcB91jBcWAuCkLryMFV5YtIIXjBJYMp8X65gw6stnrXL3i6vVVLzYSPfFPl3cr4UTViWtEzL9om2F+qMDfX7NJjdJOgpcRBaQrHOJor3IGiBt8OBi4aS4gw4Co2Q+bfL8OkAE7QSDhIPnVm9yF0xb4ZZJR9fQnDSo4Zly5w4odvcLkVRolEjf1Zm5YZsawJ9lvrFkyw4NiwNygVVCHCD35D6d3YUDu7nRXdtrWByplvdNH6xxN8xdo9eNDeMFN+q2A3ppWC7d4IUJP/Mwlr6zIQkv/Tq0VWM/X+pkjDQ8EM0b3awh/lTczmulp7d7jQXj5PKh3d3tI3ppfrnayhTpeB6StvI34QRDiEMQM0Au3Y8o6ehO79fVnTOgq4yGgUuL4aITMtCLvGm/H27a7r48abmbIXViOjcExPBmN4go672Yt/xMGhdC/Qo1hVF+TvU2N1GG8j8uX6/zDAMkM9znakgGxFIn9E40JAP5QerVe5e6A8UAuRPVw1yKifMr3VWzVzUooVGY7Bv37amLS9Yz+/oQxG+eNbHg8Qcxuny8hMkz8MPjeEEPRhZ0GC09PnfIIo6XOxasdd8Vr6CxeDG5N4guPxJeuCYb08U3AqYFt8s89PHyDbXKk7atIA/4I+Mg6awvHVLiLh1coq6ony+gI8D4cO0/8/ZSN11cctO9vmjjzrj0h+F1nQFhKE0Bfj6y9x6NK9PDym8a+9lTy93bVVs0nsUBu+VIUybikgYgxvSYuTEYMXbI9Xjp3SAPHVqJAkEFBL8niBtGj/fsqk0anibvJLBKunZ40MDIE4OI8kK8O6WxnzOtXCf3+XiJ09UP4xzlBT1wyxg1yPfI7p1ieWHWyL2uwsu/G4EX0wVObtov4IQxjnDysVGO849l9L1g+god7ShPLk7ygbgWnzLRFqvEbf2PuJNPr6zWuTErzJKtxuM+dYN+xcIFz1b/u2azPi/21Kgz6m14FAIiv9y3q/vtQf2EkHgi2U1x2uTl7jeLq3SZ3+5zNBRMFrIZMXig/h+ZC2B8vWWSjS7WyFjd4vd4aWQsWfNAtSEbGTrAy9cHlbg7RvTWCrS5A3kYL+w2+cqUcnf3onVui1hcEl6411EiMn+m4+D5k7ShrDBZyKYzYs6YjRfOzPuOEl5oeC80IC/kT6dy2ZDubqJ4RYwo1vEg3+abc6WDwL17RDvPhm8rJkvEquyKbbvE+9qgaw2fkDkgOqEnetFOfON7ZlW1LuaQtj6ol6uJYjQu5g4vjh+kixv8NqKsceEufHnSMt26Y2maApYXD6Qfkk7hpN6dlUSIhTjumXt1ofSsv22ghQWTwUT+H4cNkLzILZ6XU6Uzmi8uJmkkWO/nAhx/X0aLs/p3dT3aBQ+VK3fsdL9ftkHmZ2u08eRDc/Bi6T/dq7N7ZtwADSMvLbecjRM6hTOmLFf3zgy1seFzj36PHtxPuYETdCLcOgV2vUx4fbFbH25PrKt69Z7j8bzlnQmD3bCivZQka1ymKKtP9F7snWsqIn1YnpwflkZ2Vv/iWo3M9Nm6e7cSijEQXlc1LS2j0etHDXJlHdppg6svLyb3ibFluusnDn+SeRBeRRL90/BytPCCu5dEbhwsHQtgk6St9JRRNo6TP6/Y4M6S0R9vBWMgTj4gW1TOXPsguRlUEhgnDCR0mOyWiTM+9DxV6i6pjnFoHWiX/tAFajnfKXM6jA63AUW4Te+Fgi+Jm3LKO8tclQzNxN9ljnkTHuRpeZ8rc8vfi/sCkehIlKDyP3JFMrm+f1Rf11H01gqMyEl6kLaVnH8zqo9u3iWf+vKCPEnqDuzSXo2OxkADCW/rNWHcIw5xSePLiB5peHnwoL6uU2uJHZGR9IAT8npwdF99rmacAOPkbys3ujMni9FJYdBd7D1Wlh3IYz2SshKXg7L4B2HcJz5xk3BCvClVW91n31qqo27ASVAGVlzhmWnVJTKFQD56xMnKd2i6tIA0LP2Lfbu4syM9JeEoO1uG5NOl990gro/Fby6Qt+lGI/tnRXWkkQWE8uzryr17ZOKnhZXzokHd1GWJ42VOHXghHuD5E9GR6OvHNSHcIw6wNLlg5eScjRc6VFZBrxneQ8OSyPVhZbxkcInOn3xOaNDk9/a6Le4cGemY+xNOPtnAfZNJelxv3tzQRyYDu7nzBhTr+Uxpl8xT+8soC4iLXNIiIxuIR6eD53OydI48NyS+GR+ac33z/r3ckE6BN5NLXja0ck/VzdWkJ5x27BAd7cicAgmnWjge/E54fZE+jzKSWgIgCFXY4fH6UYPdPp1r3GN05N4W6fbGvrLQfSATfIufFMTHjZohvPTcK5h/SbvK8LJx5y43/rXFanxpeDEX6KvSoB6Q0UdHDMkNGQA5zMlo0BdOW+EelDmZpUkCxBAVXl4TXljdi/LCIschLy/UPa8WPx8sHs8SZxw7VBeC+G26cZ9VwnHC93IZXfLJ9Tk7RDpJ+GCjBvWYDWwMYARjoY3HNCzcgHz82P0vixfxp0PKMh0GgH86jCfEtT9dXM58esch9Yhnlf2toSVub53X1bgNZI7C3561Uo3OKq6lAFXQlVWpc6SHt93onNRA5F9n6UFZ6k4L5CLtahkxWSnU1V3CJDAwCue+ObNCjS4tLxZ1ncwHJakc8i/Mj4NrDQvjgBTiNa7xcuaU5ZlniJyCcn3kOsjFD/dNxwt6gev2KdWdOvBgPBm+Oq1cjQ5OculsnDHK/G5MP/fWhCE6imJ0pOMehmIHv+U/HSB4bMTzyynHDNGOi0cHxEGXbOA+ef5ZjGvivMqMJwDo9LiPa8+oSmguWXFIbXgUiJ7r20O7BxWj1R30AijK6ziPhNuxUK6lAZ3RE/fmNiFUKzSscsrC/dPKuuorKYQmIZQopKNCLxQ30+cF2VTa48s3aI9Lfml5QR54fe0WXbVEBm4Z4Rz2eIZ7xAGWJimIjwxeKmZ1lGtEcBgvXxB3Dndcw+R+LnCbNLy8e464f1wjh3BrK79atE6fFXKdixNrS7jvb0wYrAtBhOEGIxdg5ITZYUbPbdIyYvGQ/AIZJd8WGaeJ0ahOYbw4kI77P5i7WneuMOKhO7IDZ9ypCw5Cm0yMVIZnSkJktFeHVOYtV89epXHSKtKUgFCKcsuHlbolCEKpBMpCmejdeQ8sKUgHLpYJtz5SifDC+4FXhLxYQ0kLuGcT8PdEDo2IPYg0WA6uCeOebRSuC4wX3uJgjo4cnxc6EEaZJDAdvi7xGXWswZIHfLNF8Lr3V4WGGMSNg+nwud6d3V/H9deVRgwOsCiDzCiibQ8Z6E4waVngeVzcR4wGUaZrNvB89Yr3KlTXoOuQNOGZzoA34pGdT46PVIaHkhSAXoOMTAkqhUx5n4mGzDX3c4EGgyziIoUzvwnnd1JY40srR6Ko/08j8+NBKLp/RXrVbjKyh3WcE8RhI/KZ/bvG8nLXgrVumTQ0rhOIqwXSAPLg8l4ZJSbIPPG2+ZXuqZUb9eCaMO4Rx3S2tGkALzTOG8L9mgbjhRU97XTzFARjgj+eNxKVB9EGrn4g8nXhIoeO3CKfw0o6uicO6Z/pYDA4YCpgaBi2Grf8tnLz2/S0uKRFN8J/un8v7Ri4zsYV97jFDpdnV1Vru7JOhMcLpMMe0iK1qzm+e8dgD2SoLGd6MJ5HRSs+DigOKDwkEpfonPlNOL+zEWHw5RiRpEsqx3T8o7h/LKQQjzAI5cxCw2d7B68zJcEnexbpcyrS+rywJH1PAl6ywU9jl7w9fuV7q9wX3lmmB9f2RrmfRX3y+6sYtL8xGF5ocLw7+D99OgeR8oBRitGF9MghPWdGUx74J+GE0fK3Mi9jpw7p4ZQkpLX0yKSz5eA3i3vcsw6YugCEcalhcqad/GJkb3eMzAFNThwoO7hVOmnSaSek8QNd4AMvKV9ZfLRyT72XIrpzE0f0dt8d1kOtHRIgg17k7oVr3WUzV6ry+RSAxBN7dnaHdOvoyjq2FaVbh++X7dRXPV6q3OQqxT0DRpbB/41b90mRQ4+IC8LWL0ivEDnvVm1ROfSqICoHmK5XDy/V5WEqwsrEmXnZGZOXhbFz48GD+rnzpOeDF573IIOKv1nmS9+fU/eN2F8T95XHNsgCnOgtbcsbQFde8qSkYZCWhYUBdp2kBQ2TjoutXb88sM8evPCGwCnvLg1jZ8djY/vrfNk4sQfQbMC+Q0ZpyycOxtelosPdng4BC0Fdch8ZLArRgb6wZpO+l7dB6pyOk9XZcwZ001ejiCvJa7UDS0/He9irC3U3it2LA2lZ1Bkn7Q290RG+OX/yzcXuvzIqJkUqw0PJKccMlRGvgypNhoDMx726QCfmBOUSyOLDlcNKcy4Bl8socf/idTIHW6Mrj3EyvykVwgIPK6vZwP7Qe6RDuGNBpeobhcllAWDmccPUcCkLoJLQ44AX5uncNRdYCZ0l6dmtQnrSAhrqmJcX6ApvPl58WKNjqfy/4weFoXXDcW8sdi9Jg0yTv8Ut69DWzTl+78xWQIBuPAIY8eJ8tzbsHOOA6/2+pO0rMiwtvLAAtJ9wiieQTydGuxnHDXVDOtU8sgKcaPi0x7/LyHypdPhLc7xWxkBxmwwYpCFtpt3KYZ3BtdI5sqhk3EdhnQRt7s6RfdQdt86EMyuf35tdEcbOj1Su5kEyidyvc/uM8ijI9cyNW9209cG3O2J01jgozqhw/+h+mednKM+KHMbFwTXhPPf5wb493UtHDlb3DZnkB6jQp8cNcHdJLxg8zoiXI//pKiMj9LOHD8x8XsEHcgHz0jfWBq/628II2fWVUXSMjMr5wMjNJ/dIQ1ry5pqOaJYYHbC8koC0YEhR4LpSHnp8yprkIK5xsLfIAMZfEkgyBcv8r1Zu1t+ZBSO5Zo53WB5e2HzeR+qR+KSz0flFRqU8Rme68hhgqBgdSS2ME2WkPeFef2nSMjU6fnMQjzic+c317TK6spDDb8pBvhxBvMBFZGRltZ7rOFg4L8fyuAVjQy/KBljtTYNUhkcDY1Sg4GSKe4M+z6yszpARBUHEeUCMjh0FGAlxA2JaqTz8Yw6uAYWk4eBCPnlof52kc4ee6dExZeJTd9H7ueSQp8n5lLijjxxcpumDHGpgOpubQLk4TPa4BITyFnzQuGrz8o+Kaj3H8ZILpAEMtMilfMwrkJPkCOJKWeXaBmuTmRTIAbhv4WXISyCJlbxcwB0DxA+TqBzjGW6zAbea+2zeJinGYrAr6vYGMSYdeSQ+3HMQThzOWh9yTVlw+SfJ9ANe0InsuUc+nOns+dwksLL7IA54X+anvDeZSR+yM7JL+9jOPRvSGV5xR82MZkWlauXK78nr95zYAysUz13OE18bkrQRES43OPNyITsteMZlO9JJg1yIO1SM/Xt799Br5ju8moExYUSkJx5nSMU9ZTcBPr8vhzPpzhcduCa+gd+AOSHB1mApI/dGdMlveCPDOEl5yQdPvcw1cpPC4sbJSQrTmeedNGLjxTAyfMs/G/j8hIF06pZJpVNPIBcnNlrjYRnImiPQxblZ4mWx0giQmwvcJd3dC4NFLuCnsI6SNgKySSMt995cuyWUWeMd8bLAPkW5OfGRyvD26xLMp2hWZji4duxrAxTOB78Zga7dp1SvGdZR1NKyZH3oKwvdBdPK3VlTlruxryzQBQ2IxbBY7ucF0YeWVmlvclW4j5JGgAwOKuni6St029HX5Hy6uB4Hy7zqmYqNGTkstpAXy8Gml8GumYeRH3qpflpKmf/lmIsaiEPcmtWu4NkPq4LAzy8N4Kq+qKsM0/n96oAXxPi85JpbAxY2iGeccM2cEJ5BlBNTE7m818mU5EDp0DIygtuZeMyriXe5zN/ygfwBozc7e6z9IIvDOkq2odHOstUX9Qr4goIBOUSnnSVpK4ZUhsecx5QlM44lm3e4ZVv2/AaGKXmE+PrMCwFhTEY5sxv9pg9W6yjIbw5GvHOnLte50cNibCxMXD5rpa46HV9aFCxehHLsGRmj3H1yWDgHz8z+d9Jy7V3ZHYFRkleuCfjq7TvdYimLlYsD9G4ffJMjFyyOn5a8Vkp5Pu7gLW3K4nMCbC9qNvgfoLW0PDTHiOPAfak6fTGY1W0W4bqGRkCdAuJwzQjH3I/HFS+LMYEwSixIB2gXvPtIXAvTfCWAMxuqaWMgTp6lYdEO2ECCjtxj7psU6QxP/GBAZgaWb+OGeotie9nM10dZwPIvV4xKKM7BbyauR7220J0/tVxJYr5GuMlheAf0Uriftj2Nw5dDBY9/bZG7dMaKzOQ7F5Dlv9Zvlc2rPflgcSwNyMbLxw2UAY/BimZ1bw00G6wREl9dcLmmY80F2KIjvmbOKnfV7GCnCB2s1SkH+jCnozM+/NWFid8TpG6IM3+TdSJBCk0rl5aHuYtWzjjwVTNg9W1tMkknbUj1Pp59m1CVlX+cN7IpNyau6iIHX5D2gQHgnrJjnDjaAUbSbBUr4N0pju1yTThL/kArkntyjdswW1wXex8rKmeHpEVj5Pj5ZDs2hysRVjagCz4xcf3DFoX4fz5eUh/1RZzMlIc9C/V50SLHxLXDGqVGI0ygcuQ633txNN+JH1a6a2avUiMz4zOjYxX6pLeWuIViRNSv1Xeu46Ow/pdv3VFLJx8EsZmbizgdTUbV9t06xTEuANfafCJpsh2pRjzS2NkU53sVwIg2QBQok56RWxiMGo1c87IjvWguaB7BpQKjVznyz+7Rg9pO+mzgdu4YNbqvCp9LUTZLky8t8OPm4+XjBNOdxSqQhhc/HvUOTI79zga8DzponuOa8flG99k3l+jKIvrlqf4MLE+rH18Hrq1TsZE6TqyFrd+5Sw3PfpusRnM1Gwoo6pU7FvnuG2qKvyeQkVQOSFqJBdQN+dx9H77x8WAarwJjq4vR+fANzocZpHkvuZAtBrumkiKV4VmGnGusPPBroyRY3OU2MQ/vE85KZ1k4L7J4URAd4u0+W8pUjvwjjIOdFaxuZUMQP3+Fm+5sMwJ+x5AnqcKPm4+XjxPqw4sfz+qel4SB/c4HjI/0PxO385LpK9wp7yyts9FF84z+pmwErbNRWf9fGxbGJ/PZ9mi/TRZtNClSGR7DK+D/5vJla/jWcfhf/UVByKRXGRM+mPY7GC75jUxWxYhLHoThYgBkQBKqlEiD4LMEpPONi0sOGgwHcoCfVxzsAaiVDSSp4CgvoFOODiEfLEvOwSH/5MIPj8K/F8QNfAE/vK6oCy/M4wH/t0Ztn5LPkzQD6pQ6Y6n+14vW6aMI3E0YzleXUaADsJ1Q9htomwrrbVW4cBKno6VhC50+kgh+ZsoXlyYbUrUOlmMBihooCMREYVHYisVdfVaiCgYNgi/4AoyC5ByEU1837tfTvXvMEN3GQ2URxuZp5NiqKOMfV98ZFnwLJCqH41ej+7qpxw5VORhzrsZCJTOxtihWRpa388F4Mfmc8PdjaEkES0blcE1jQ5aFx4n17xE300A1ND5NEmTjJdcn9wGeDvAbNZ8JSQPqlIOVTgNzPcJy1WUciI8WLNJxNp0QQ5MKwmoeFfht3BCkqFndt5V6k5Vv1daH1As5JDvYNBxc1bh7PPso64ArUjtusMT6kT5nscIQhgFyZi/fHSN765DNb47WrT5y3xCDZAM0cu8e1cdNEsM5e0Cxe7Zioz7fIU9EB3KCDy7xaQHSmpy9pFTX71uqr+abnMnHBHLQqWZ5pubgj30M7mSVUoOVW9F9z/j+YQtFlpaDTxTw3DMufr4j6Jo+ctt279YN2qzesnPetmsF/68NCyMOcUlDWmT4MtMejHY+L4Gc4LlnNK5/sM8zuKppKzTYwAXfM3706Nq2lftM7yL36V61D/4yLOfRxSz7x6eNHlbf7FvF+PmFPgZoxfjg7UN9OF6TtvYBPtK61aswyDrYZVvwyqJp4o9UI549sScpilLJuI3s4QTRHp7f+L23hru+6amC8MBo2HUwRQzroYPL3P0H9XOTjhnm7hnVN7O9CHfF/u437/v9auFalcM9gA7IuWn/XpoWGciaLNc37tdL7xGXlU82ZkfUU1gYn3ro3CZ4uqJy5YrrfD07wA0mro7CoU6swo4It1VFeckH0gO2v/X/91w36LkP3JD/fOjer65xt6OwMOIQlzSkRQYwmUlhKrP5oUg6R5JTNs4cNspnw9xIWyF/+LWtZtk4sWA2WP/z8EHu2SNqH/8Kz/dKOwFZxNSCeUmf6d1F3UQ2cVhZuBOsHgS7l4IOJbgXhXV8tk8VGXrINW2M+WdSpDI83kAgEw50sMpkP2UcuE/cBxavc8+s3KhGitvAqGSVQcXyHtuFg0q0QIRxH7AIw86U2/XbKK10lzmuq8khmskhLTKQReVCkrmjvLn84w9Wu0eXVgW6q/QAViljijtqYyCdytXQ4K/U5IO9gaCyJa3KkOvDw43C5oqkBWXkNRoORjCr+EB6bVgYcYhr6Xw3LQ2MFzY7w73xYsD1z4VoWyE9/OLpgGycWBbsIpqxYWum4+TMwXyaM56MzRnjJdUAbmgDeFPIRw9LY/nx+5/iVUEX5c0GG2iIwSGqqAx2KfGl9KRIZXjvrtuiFYli6GYFOLFXZ72Oq2OCIIq9mLw7heKBm4ivHhAJsYxu9kyO+8xReLn2G9NXBAWUfyzXnvbuMnVfkRPkWSMHGSaHhoMMZN00d7W7fk7wfY+oimbkR5cGO2OAJNF03JocburNBTZYE9d40UPCT+gZvKmNfvWFzdlAXKO1MP5P3PrCeOHVnCgvSJ8Z/m35bKCDpE6oB9JRV4A3RUAuTohLHbIHmPyYZwbnVpn1BNYWTisrVt3wkEy+D8LgQkTJ1KOn21c6+aADCEdwOVCDJ8R4Zo8tN+9gT91MPoNM/47h607yz8oxZf0W/TRkUqQyPIj4wNwqyZCMKRQvxo7L4m4a8J8///YS940ZK9Q1MxIxIHojRjfO8p+bLvmw2fkyiYvRBvkFRLHz4IQ3Fqsh4e74cpBhcuCDyj/xzcX6+oiSjCIREMbK57E9ijSObeolfMW2HXl7dsCe0Mx+Rvmfberltab9xYUFWWhpsUB/lv+jvHC9Wua074SfmsgGvr+5YHPgellbQSYjaNKP7v5JDMHyBvzfftMe+GYKf9ko8KI0SiYOIIz2c9nQ7u6a4TV/rcnukwSvCD14O2ah6Mt1KCoWvJJGmzN31cBbHGmQyvBQ/JVwUyqFIuOgB3Hu3DwffDEd75VRbMxL8/WZzE/E/XtwyTrpada7h5ZUqYEc//oiN/blBe4JCfPKpYAQwsgT13Hki/Pdl0TOxHlr3MOSnr8dgLwfiJwJry10R7660D23qlrTxJFpFf9Z8f27i/FRPspkPj8vgdJh5AMjMTvfAboZL3QAfHoA+JXU0mG8fEEaWZQXmOEvsubbeYQx2Lt31lZorHSQwSJXdmh8Of93dXXGjYdP8uYw/egYnhs/SOf4dP7A4gAM/N7Rfd0vD+wrYd4raXIPESJSDZG3Jm4UrwgQFgd0Yt7OpywAsgCjLXg+LGtStHJ/m5Ulq3jgVjLBNTJRlDPziVEvzlPfXAsVRN8DKAyJ+ZAvHuVFh3zIFQ89cTvemDDEHSo9MfmRLz005zMnL9PN3ElwSt+u7slxA1SGujKSp5xcuYzQBzw/T/lJoG5W4DKxEBX97IbBwnABx7y0QI2lrjBe3jx6iM5njBfO6HHRtHKdt+cDb5Q8f+Rg1Q0ujBMWyka+ME9XyckrTlOrt9PFnXzskP6ZKQ7hxCedzwNuHn89l21pfLEbVxTXks7P8ieqn5by4C2dK9OguPm/wXQ5SzrR340py9Sx8YKHNvbl+RonKVKNeICena8hUxB1IeSMAkx07d0owrKBuACFqUQKRXTO9htYvGywQiLHKiROTjYyuM8t3jrG/TFjI1tIpQL/Hb6/lwS868djE9L6vLBD51tD6/Z3B5oDPi/MZ3xeOPOI4tmKZLzwd+31k+8i0+ck+CBy7rZCvaHL4+L5PCEuJwZCZ4JuJDE+ORPeUUYjVqb5sNFJ4sEw2mF0NlpbGs7IRg9k/mJBpRqdllHuxUGiatwrwmfGFo9w5D0pnhYykZEUqQyPgtLz8P6bFQSYz33BwBItPNf5VKDgkEJc5HC232mAHI66yMFAb5BJN1Etuq2E/rl8vX7pjDLnA3HocR8WNzeOl29LhWGAXCcQ1+yI4wWO0f3pFRt0np2PF+5TD3xsyo8KJ8j6+pDuuqKdixOJpvcunl7u3gxXs3FX0Ylw0w19uba2YAdhZgyWBp0AhnTfonXuO+GX8YgfB+5xh+9vji7uoPGsI8LNxJN5RAwX0LkkRarXguy1iD8sXR98sViKQl6BcsHfHeALTMThHueWeNDb8FyZL0bxeYFao53oDbm/WSiuVCRdtsN4eWhxlc73jBfqHENm8eb2kb01Tr14SYq4tAkOvmwTxwvgTKO9c/7a2LTRw17TekQ4Cf7wZo0nQBQ8JD4dyOs3mkOYzj/gkDN/zuzzby1xL8g8CoMBZkDArsgDPe3sg7xJg5Fy68b3V7uLxWUmsekaPdCNe7x0a8+FTap10ExFluLpyLXpm+RINeKRhnKzqnXn/Eq9tgk3haVgn5Q5ID289QwtDaqzKIwrcqNMytHT1rkoC/f5HqU9hyJuPhCFuDxsp4c3XgCGBi/MVb46qKRF84Ju7KH1eUFTrrnP9zR5vEJYEl5IYxsoSGNJzIhpK9fJyIqsbJwYt7j+J76x2P1k7mp9rUwNiPsSAf04MC47I9+uiYd80jAHPunNxboAF59jDVCJNA8c3C/4qrhogxwRqfXKy9YTpWyAsDRIPcczq/+l9Hz0ZChihbPR4tYRvd3h3Wsm5S0FaIL+kPgHmbDbi700EIjjPmT+SHrDtIB30v9MKiJ4472mhzdefi49/FhvsaKlAE3ghRXMP0Z4sfrmudoP5wR//yEpLO0jS6rUYGnElJ0wys81Rs4fQ8nFiXGLMV0nOox/ZYGuYrNIg47I5SC9HX4Y6Xj2e+HUcjfu5QU6R9U6V+nxIB36TxRP5bjSmr/rRxp0Jf0d8yrD0Ty3rDi0cn9Nt6oJIIFETMCfOnygKkXjQgEjkMZ33GuLMopRiOaE6YwuTx820J0kuhuZAL2pKHpC3JC66GxpTi3r6p44dEAsL4yKR76yUJ9BpskD3aYcl3BV88Xkq5qIISau39+kLv1GBphT4d7d8gEvpVak0hlYfDriV44akumICIcTxi06u0+9sci9tbbm83vZ4OfPJ/mO7NFJv+vDN1SL27bRzoPRkZGWTcsY/GuVm3VB0JCvDKbDNfuUup8e0FvXNZjPSbJMPfLpiYNfnJ95aJ6CEoUY3sy0aRSm/INjytz5A0tqKUfF0VAoLITag+5chDYmTFfOj4zpr8vC1rh8fXkQfvSrC91WIbOumlpefzxkgDujf3EsL6z0fTolL8Sbctyw0PDocZFYAwsLDG9+IpmmK0b3F+mM2GkTpy/L5UfIKFNXXiyfa8Wt/PH+8Q0ZI/ncW4vdFKmDfJwgj9RxcVjJtB1QUeSTiz4SRXW9ep+e7mYxOjiwjoJwY+ATry/SUdTC0yK1q2kgMxS9fOZKNTB6RSofUFkozK6Nf43nL68GW3UoeFODPNEV9/LJcQP3MDr0glhWp746ZXmqbT9xMF4um1GuG4XjeOFPB8PLIOmlk/JCDCpLz6Hu/mFhFicfjBeW9uOMDr04w8v5U5bVixfyoYH+VOZn/xI3D05sdRI9yIs3F3g+zLzPOMlWDuSZfsSDV+QDMzp+E859u0eabCAOd0n+o/167WF03CM9Mtk1VR+jA3U2PAM7O/733aWhv13To/iN7DlpZBN6FGXIMiIaE+TBQZ50AC+Im/OFvsEf7rdKhTS0Jd4l08t1tOC6jlxmIOL1UcQZeXh5UXSyB/fow5ENpN4h/8M42APJ2T8yYRInl/7kYbzsJzq8NGHIHkYnlyoDnuCFrYL15YXik/7syUv1rwVhfOhg+XDNTpS/Hz7IfW1w91r3soH7xINPdPbBb8K5H73nA+nkQRw658dkinCDGB7pfKMzl5tnfrd8ULepiI86u5oGU4A9bPScKAtlRhgF4JqK/b7MEW6bF6wCaYEkXb0yjwG5krWRwgh3+8g++ueiokaH24AhXP1ehbv1w/qT6SMfL+hC3sxvvvfeSnfPgrUaHjSCoNFFwcdeO7RpLbyJoYZyDBaGO5jt9RRkUx/g1LJid9eovvrCrukCfF6unLVS66uheCEHxLCjhE6HUc7PG92oHfJ7aMk64aVCV9C563deDYGozKNkrnjP6H662u23E+6a0f1nVbW6w7Tl+mpSb8MDVjFf6d/NPTK2TBuZVR6gcOYK8UcrrpIKtU95kxbUt2KjchhRfiTziS/1C/bWZTM6DA7DszI0JJLwYob41xUb3DWih73HRjjV2xC8UGprYHwP83rp0XmFCjQ1LyaPh9HPHjFYjY+GTMMGZEXHg04fVm93186pcH9aXrNtr768RNPT8Vw1vNR9ZxgvU9fmgyhmdK9UbnInv7VEPRi7Vx80iOEBI5RG9qg0MpSPFsIIJZyH8HfOX5P5K0MAGdY4JUrWwiFPxMh5z0rgM9qXDunhLpCGxQN9Ghzxwnqt1QlcJ5XKcyHTvTGQhhfc9l/Mr3S/WbRW9zEauGegvLkQSA1gxgaKxY26eHCJu1waGC+ZWnmbgxeTy+jypHgDjOS+q0uW6GMdFA/Ob5eRl/flfCAn8CQCXrziKkiORKQgz7+NwZ83sMRdOrS77irintUDQD/rhP5SvsGdJ/Nc5rvcjWRTJzSY4QGUpoA8Znh4bH+duEcJ9QvHRPjJ8vXu8WXrdXc3blddUCTu17E9i/TPJzOPs+dQ2XovdPrmjBXuPmng1ggaE0l48Rsay+GPLatyv5f5BJ+zpxx1AdL4M2M83jhTDJ+XR0FL4MU4YYHpsUMGuMPD13sIJ29g+dtvVjx5k4UFmlkyH0+rHu3keGkn/9OnqztFPCH9eK0gyodfF3z14JsyzyXc7jcEGtTwgFUYW45+L4Ti8lGQ4F584QBvNbywptpNWrcleO9PXC62X0WXhtmvx4ZYFkz4wtghJR3dJ4RMvgtiiBJJ9tZ74b5cMHW5e1VcB6v8pkA2XtASGuJ4IT4LPmzWxjWn4bHszgpjnNbwwrMt3DjeqP9EL/7qbgctJ7D8/IZtvPAu2kVTy6UDDB4uR2hvFBj/PAK4a1Q/d5GMyCBaf3TWvt60Ceaxr0kdslCzQK7prNbIfJDPi5CGz1WUihsJH/xhSxaxDivppCOdgXwYMeP4wPu4Uube9y8K3sIwXRoKDW54wCqOnv2WEb11lQpYQcN2oIB4v/AAhTaJ0fHOF3tC7UOhuI70UvjlXUW2l0TTIMsaGZCfGSLB/5OR9YpZK9SNa0qjM/i83Dayj24hA1Feonob+LQ9n3Vgc8KGncFcAyCTUZ7Rg28+duCVbQ/ZeDf5uFLfkpGOzc9NzQsaWG68u3jLiD5qHGYEfn1igMSN8gKIv3X3bj0D4kR5ACY3yjdltnkmjwrgg09PEBKKbFA0iuEBa2TgZHH//JcV4xoChYcQEEdsHCCLFNlkmRyeM7IjxSbpvm5NDT9v3B0eKNtb6nG80NiITwMM20VeEB9uiI+XYYjygpdx49xV7sHw3brm5AWNyJr36G4STvwXq3O1F865uIEHysR9kbAHt+RpfLCh4ZYPV2dWmBuTj0YzPEBxKBPK0yNfKK4E38Fk6AdkrA0kQogBUmtPifckz0BcKoJKsNu4lXctqNSGxfzRwmtLbHr4evDVKzaVXzKkh7pFAL4oSxwvcZwY4rgxXpBljRM3KviI1Br9SE9L4cUfbY/uUeSuHF6qXwcwveElrkNJCuMC+J07HDyydJ0ubNm3MRvT6EAr95fGMzyDTyhu1tnSm7GidHD4NWmD3+AA3HBlCtp1KGqPBmVgLvRbaVi/W1KlK1HA16GlwNeJlUZcT3iJ/oFD4hArDS+EId8H+2bh5FE5mNOBlsaLaWwaMYdnS+IXxTvw52cGazOgdmlrZFDG6D3SvbNus77W85gcPC8ETcVHkxiewS8U16wwsQp5TGmRfmg0zidPAjbEzt24Xb/RwWcEX6/cXCufltSw4uDrCAef7tXFfa5vF3eC8MNKZFLXOwpWCZm3sWL8rPDyz4rqzNYvOiuybKnMRPVjPymLRUdLW+ETgey6YZUy2ulmA/Nj/q4di1Rsmn5B2so0/lRceJ86MNezKdCkhgfgCTfBNwZWKkcVd3CHl3TSM2+x07vR6LhnMUlLw2FxAZfgvQ3bdNUPIvmj8MwFDE1NZH0RxwvuOatxLLXzZ7DZ8QEvAzvuFTTMMB5p2TLGHIUFKR7Cww1vbU+VxkXHZPi48UI5Ga98XigDbjkfDKbDpp2wM4lVXXbwAHbx8BVwPmTESD9Xph22Uu6DTg3ZTc2HGN6Mj0sdFFDA/zeo9ybpAgooID0KhldAAc2AguEVUEAzoGB4BRTQDCgYXgEFNAMKhldAAc2AguEVUEAzoGB4BRTQ5HDu/wD6K0TZe6t2HgAAAABJRU5ErkJggg==;" parent="1" vertex="1">
          <mxGeometry x="1656.22" y="786" width="57.56" height="21" as="geometry" />
        </mxCell>
        <mxCell id="bhSp_nqPL6aL0_6EBMFD-52" value="www.susosise.es" style="text;html=1;resizable=0;autosize=1;align=center;verticalAlign=middle;points=[];fillColor=none;strokeColor=none;rounded=0;fontColor=#000000;fontSize=9;" parent="1" vertex="1">
          <mxGeometry x="1645" y="807" width="80" height="20" as="geometry" />
        </mxCell>
      </root>
    </mxGraphModel>
  </diagram>
</mxfile>
